<?xml version="1.0" encoding="utf-8"?>
<!-- Generator: Adobe Illustrator 21.0.0, SVG Export Plug-In . SVG Version: 6.00 Build 0)  -->
<svg version="1.1" id="Layer_1" xmlns="http://www.w3.org/2000/svg" xmlns:xlink="http://www.w3.org/1999/xlink" x="0px" y="0px"
	 viewBox="0 0 34 34" style="enable-background:new 0 0 34 34;" xml:space="preserve">
<style type="text/css">
	.st1{fill-rule:evenodd;clip-rule:evenodd;fill:none;stroke:#ffffff;stroke-width:2;stroke-linejoin:round;stroke-miterlimit:10;}
</style>
<path class="st1" d="M8,6.3C8,6.3,8,6.3,8,6.3l18.2,10.7c0,0,0,0,0,0c0,0,0,0,0,0.1c0,0,0,0,0,0.1c0,0,0,0-0.1,0L8,27.7c0,0,0,0,0,0
	c0,0-0.1,0-0.1,0c0,0,0,0,0,0c0,0,0,0,0-0.1V6.4c0,0,0-0.1,0-0.1C7.9,6.3,7.9,6.3,8,6.3C7.9,6.3,7.9,6.3,8,6.3 M8,4.3
	c-0.3,0-0.7,0.1-1.1,0.3C6.2,5,5.9,5.6,5.9,6.4v21.2c0,0.8,0.4,1.4,1.1,1.9c0.4,0.2,0.7,0.3,1.1,0.3c0.4,0,0.7-0.1,1.1-0.3
	l18.1-10.6c0.7-0.4,1.1-1,1.1-1.8c0-0.8-0.4-1.4-1.1-1.8L9,4.6C8.7,4.4,8.3,4.3,8,4.3L8,4.3z"/>
</svg>
